<?xml version="1.0" encoding="utf-8"?>
<!-- Generator: Adobe Illustrator 19.2.1, SVG Export Plug-In . SVG Version: 6.00 Build 0)  -->
<svg version="1.1" id="Layer_1" xmlns="http://www.w3.org/2000/svg" xmlns:xlink="http://www.w3.org/1999/xlink" x="0px" y="0px"
	 viewBox="0 0 512 512" style="enable-background:new 0 0 512 512;" xml:space="preserve">
<style type="text/css">
	.st0{fill:#FF8367;}
</style>
<path class="st0" d="M407,362c-24.8,0-45,20.2-45,45s20.2,45,45,45s45-20.2,45-45S431.8,362,407,362z M407,422c-8.3,0-15-6.7-15-15
	s6.7-15,15-15s15,6.7,15,15S415.3,422,407,422z"/>
<path class="st0" d="M105,151c24.8,0,45-20.2,45-45s-20.2-45-45-45s-45,20.2-45,45S80.2,151,105,151z M105,91c8.3,0,15,6.7,15,15
	s-6.7,15-15,15s-15-6.7-15-15S96.7,91,105,91z"/>
<path class="st0" d="M285,181H75c-8.3,0-15,6.7-15,15s6.7,15,15,15h210c8.3,0,15-6.7,15-15S293.3,181,285,181z"/>
<path class="st0" d="M497,241H360V15c0-8.3-6.7-15-15-15H15C6.7,0,0,6.7,0,15v392c0,4.1,1.7,7.9,4.4,10.6l90,90c0,0,0,0,0,0
	c2.8,2.8,6.6,4.4,10.6,4.4h392c8.3,0,15-6.7,15-15V256C512,247.9,505.4,241,497,241z M460.8,271l-30,30H231.2l-30-30H460.8z
	 M90,460.8L51.2,422H90V460.8z M150,256C150,256,150,256,150,256l0,226h-30v-75c0-8.3-6.7-15-15-15H30V30h300v211H165
	C156.8,241,150,247.7,150,256z M482,482H180V292.2l34.4,34.4c2.8,2.8,6.6,4.4,10.6,4.4h212c4,0,7.8-1.6,10.6-4.4l34.4-34.4V482z"/>
<path class="st0" d="M285,121h-90c-8.3,0-15,6.7-15,15s6.7,15,15,15h90c8.3,0,15-6.7,15-15S293.3,121,285,121z"/>
<path class="st0" d="M285,61h-90c-8.3,0-15,6.7-15,15s6.7,15,15,15h90c8.3,0,15-6.7,15-15S293.3,61,285,61z"/>
<path class="st0" d="M105,241H75c-8.3,0-15,6.7-15,15s6.7,15,15,15h30c8.3,0,15-6.7,15-15S113.3,241,105,241z"/>
<path class="st0" d="M105,301H75c-8.3,0-15,6.7-15,15s6.7,15,15,15h30c8.3,0,15-6.7,15-15S113.3,301,105,301z"/>
</svg>
