<?xml version="1.0" encoding="utf-8"?>
<!-- Generator: Adobe Illustrator 19.2.1, SVG Export Plug-In . SVG Version: 6.00 Build 0)  -->
<svg version="1.1" id="Capa_1" xmlns="http://www.w3.org/2000/svg" xmlns:xlink="http://www.w3.org/1999/xlink" x="0px" y="0px"
	 viewBox="0 0 512 512" style="enable-background:new 0 0 512 512;" xml:space="preserve">
<style type="text/css">
	.st0{fill:#FF8367;}
</style>
<g>
	<g>
		<path class="st0" d="M462,276c-5.5,0-10,4.5-10,10c0,5.9,5.1,10.5,11,9.9c5.1-0.5,9-4.8,9-9.9C472,280.5,467.5,276,462,276z"/>
	</g>
</g>
<g>
	<g>
		<path class="st0" d="M256,236c-5.5,0-10,4.5-10,10c0,5.1,3.9,9.4,9,9.9c5.9,0.6,11-4,11-9.9C266,240.5,261.5,236,256,236z"/>
	</g>
</g>
<g>
	<g>
		<path class="st0" d="M256,196c-71.7,0-130,58.3-130,130s58.3,130,130,130s130-58.3,130-130S327.7,196,256,196z M256,436
			c-60.7,0-110-49.3-110-110s49.3-110,110-110s110,49.3,110,110S316.7,436,256,436z"/>
	</g>
</g>
<g>
	<g>
		<path class="st0" d="M299.6,247.3c-4.8-2.7-10.9-0.9-13.6,3.9c-2.7,4.8-0.9,10.9,3.9,13.6c22.3,12.4,36.1,35.8,36.1,61.2
			c0,5.5,4.5,10,10,10s10-4.5,10-10C346,293.3,328.2,263.2,299.6,247.3z"/>
	</g>
</g>
<g>
	<g>
		<path class="st0" d="M482,176h-10v-30c0-5.5-4.5-10-10-10h-40c-5.5,0-10,4.5-10,10v30h-76c-9.6-5.1-19.7-9.3-30-12.5V136h30
			c16.5,0,30-13.5,30-30V46c0-16.5-13.5-30-30-30H176c-16.5,0-30,13.5-30,30v60c0,16.5,13.5,30,30,30h30v27.5
			c-10.4,3.2-20.4,7.4-30,12.5c-23.8,0-53.6,0-76,0v-30c0-5.5-4.5-10-10-10H50c-5.5,0-10,4.5-10,10v30H30c-16.5,0-30,13.5-30,30
			c0,9.9,0,229.4,0,240c0,16.5,13.5,30,30,30h146c24.5,13.1,52.1,20,80,20s55.5-6.9,80-20h146c16.5,0,30-13.5,30-30
			c0-9.9,0-229.4,0-240C512,189.5,498.5,176,482,176z M432,156h20v20h-20V156z M176,116c-5.5,0-10-4.5-10-10V46c0-5.5,4.5-10,10-10
			h160c5.5,0,10,4.5,10,10v60c0,5.5-4.5,10-10,10H176z M286,136v22.7c-9.9-1.8-19.9-2.7-30-2.7s-20.1,0.9-30,2.7V136H286z M60,156
			h20v20H60V156z M20,206c0-5.5,4.5-10.1,10-10.1h116.5c-13.5,11.4-25.3,25-34.7,40.1H20V206z M20,255.9h81.1
			C91.2,277.8,86,301.8,86,326c0,24.2,5.2,48.1,15.1,70H20V255.9z M30,456c-5.5,0-10-4.5-10-10v-30h91.8c9.4,15.1,21.2,28.6,34.7,40
			H30z M256,476c-82.9,0-150-67.2-150-150c0-82.5,66.8-150,150-150c82.8,0,150,67.2,150,150C406,409.1,338.6,476,256,476z M492,446
			c0,5.5-4.5,10-10,10H365.5c13.5-11.4,25.3-24.9,34.7-40H492V446z M492,396h-81.1c9.9-21.9,15.1-45.8,15.1-70s-5.2-48.1-15.1-70
			H492V396z M492,236h-91.8c-9.4-15.1-21.2-28.6-34.7-40H482c5.5,0,10,4.5,10,10V236z"/>
	</g>
</g>
<g>
	<g>
		<path class="st0" d="M316,56c-5.5,0-10,4.5-10,10v20c0,5.5,4.5,10,10,10s10-4.5,10-10V66C326,60.5,321.5,56,316,56z"/>
	</g>
</g>
</svg>
